<svg width="18" height="18" viewBox="0 0 18 18" fill="none" xmlns="http://www.w3.org/2000/svg">
<path opacity="0.54" fill-rule="evenodd" clip-rule="evenodd" d="M12.502 11.0002H11.708L11.432 10.7262C12.407 9.58921 13 8.11521 13 6.50021C13 2.91021 10.09 0.000211716 6.5 0.000211716C2.91 0.000211716 0 2.91021 0 6.50021C0 10.0902 2.91 13.0002 6.5 13.0002C8.115 13.0002 9.588 12.4082 10.725 11.4342L11.001 11.7082V12.5002L15.999 17.4912L17.49 16.0002L12.502 11.0002ZM6.5 11.0002C4.014 11.0002 2 8.98621 2 6.50021C2 4.01521 4.014 2.00021 6.5 2.00021C8.985 2.00021 11 4.01521 11 6.50021C11 8.98621 8.985 11.0002 6.5 11.0002Z" fill="white"/>
</svg>
