<svg width="53" height="48" viewBox="0 0 53 48" fill="none" xmlns="http://www.w3.org/2000/svg">
<path d="M48.5423 0.53278L2.03787 19.8881C2.03787 19.8881 -0.160792 20.6873 0.00939351 22.1614C0.184161 23.6381 1.97831 24.3136 1.97831 24.3136L13.6799 28.491C13.6799 28.491 17.2119 40.7783 17.907 43.1164C18.6021 45.448 19.1598 45.5029 19.1598 45.5029C19.8072 45.8014 20.3956 45.3262 20.3956 45.3262L27.9558 38.0154L39.7385 47.5995C42.9256 49.0742 44.0854 46.0017 44.0854 46.0017L52.365 1.70248C52.365 -1.24827 48.5423 0.53278 48.5423 0.53278ZM40.3093 42.4389L27.7038 32.1886L23.7921 35.9699L24.6522 27.9248L41.4548 12L18.5511 25.5978L8.39168 21.9715L47.1527 5.83798L40.3093 42.4389Z" fill="white"/>
</svg>
